# xmcd
#
# Track frame offsets: 
#        150
#        13269
#        27697
#        45865
#        62387
#        78409
#        94699
#        110043
#        125517
#        140322
#        156495
#        175291
#
# Disc length: 2566 seconds
#
# Revision: 0
# Processed by: cddbd v1.5.2PL0 Copyright (c) Steve Scherf et al.
# Submitted via: ExactAudioCopy v1.0b1
#
DISCID=9d0a040c
DTITLE=Tara Oram - Revival
DYEAR=2011
DGENRE=Country
TTITLE0=1929
TTITLE1=Things I Should've Said
TTITLE2=Easier Not To
TTITLE3=The Cornfield Song
TTITLE4=Can't Get Past
TTITLE5=Strong Enough
TTITLE6=You Don't Have To Worry
TTITLE7=Kiss Me When I Fall
TTITLE8=Pretty Red Dress
TTITLE9=What If I Was Willin'
TTITLE10=Overalls
TTITLE11=When You're Lonely
EXTD=
EXTT0=
EXTT1=
EXTT2=
EXTT3=
EXTT4=
EXTT5=
EXTT6=
EXTT7=
EXTT8=
EXTT9=
EXTT10=
EXTT11=
PLAYORDER=
